<svg xmlns="http://www.w3.org/2000/svg" fill="none" viewBox="0 0 487 300"><path fill="#fff" d="M48.602 0 0 49.167V271.83l15.259 27.692H89.29l16.389-27.692v-69.512h40.69l16.389-28.256v-58.774h14.693V271.83l14.694 27.692h74.598l16.954-28.822V115.288h6.216v118.678l11.303 25.996 39.56 39.56h129.415l16.389-27.692V148.065l-12.433-8.477 4.521-9.042v-83.64L428.938 0H48.602Z"/><path fill="#322A2A" d="m463.271 141.829 5.685-13.238v-78.04L424.423 8.786H54.007l-43.38 43.63v216.221l12.71 23.016h63.01l12.709-23.016V193.29h43.564l12.71-23.017v-63.579h31.103v161.943l12.709 23.016h63.298l12.709-23.016V106.694h23.543v125.253l9.331 22.416 37.098 37.29h119.675l12.709-23.016V152.105l-14.234-10.276Z"/><path fill="#65ADB9" d="m78.647 180.157 7.333 85.084-7.333 13.279H31.045l-7.333-13.279 7.333-183.675 31.432-31.614h77.161l7.333 30.309-7.333 13.28h-60.99v43.877h56.273l7.333 29.46-7.333 13.279H78.647Z"/><path fill="#9FC41E" d="M297.661 93.56h-42.906l7.333 171.7-7.333 13.28h-47.89l-7.333-13.28 7.333-171.7h-44.492l-7.333-13.28 7.333-30.309h135.288l7.333 30.309-7.333 13.28Z"/><path fill="#E65014" d="m457.095 183.303 7.333 81.956-7.333 13.28H350.521l-31.433-31.614-7.333-17.589 7.333-179.345h97.285l32.174 30.163 7.333 45.764-7.333 17.112-22.328 18.003 30.876 22.291v-.021Zm-55.594-42.718V93.558h-34.79v47.027h34.79Zm7.704 94.635v-51.896h-42.473v51.896h42.473Z"/><path fill="#0787C1" d="M23.707 57.858v207.375h62.268V166.87h56.274v-57.468H85.975V80.253h60.991V21.935H59.424L23.707 57.858Z"/><path fill="#798B2F" d="M155.021 80.253h44.492v184.98h62.556V80.253h42.927V21.935H155.021v58.318Z"/><path fill="#B11917" d="m438.345 140 17.529-14.149V56.263l-36.603-34.328H311.77V229.29l35.737 35.923h116.936V158.832l-26.077-18.852-.021.02Zm-64.307 67.164v-37.166h27.828v37.166h-27.828Zm0-94.634V80.253h20.124v32.277h-20.124Z"/><path fill="#fff" d="M78.647 159.511v98.363H31.045V60.919l31.432-31.614h77.161v43.589H78.647v43.878h56.274v42.718H78.647v.021ZM297.666 72.913H254.76v184.959h-47.891V72.912h-44.492V29.326h135.289v43.588ZM457.095 162.658v95.214H350.52l-31.432-31.613V29.325h97.285l32.174 30.163v62.855l-22.328 18.003 30.876 22.291v.021Zm-55.594-42.718V72.913h-34.79v47.027h34.79Zm7.704 94.634v-51.895h-42.474v51.895h42.474Z"/></svg>